<svg width="25" height="24" viewBox="0 0 25 24" fill="none" xmlns="http://www.w3.org/2000/svg">
<path d="M0.5 12C0.5 18.6274 5.87258 24 12.5 24C19.1274 24 24.5 18.6274 24.5 12C24.5 5.37258 19.1274 0 12.5 0C5.87258 0 0.5 5.37258 0.5 12Z" fill="white"/>
<path d="M7.925 9.15019C7.925 9.00019 7.85 8.85019 7.775 8.77519L6.65 7.42519V7.2002H10.1L12.8 13.1252L15.2 7.2002H18.5V7.42519L17.525 8.3252C17.45 8.4002 17.375 8.47519 17.45 8.62519V15.3752C17.45 15.4502 17.45 15.6002 17.525 15.6752L18.425 16.5752V16.8002H13.7V16.5752L14.675 15.6002C14.75 15.5252 14.75 15.4502 14.75 15.3002V9.8252L12.05 16.6502H11.75L8.6 9.8252V14.4002C8.6 14.6252 8.675 14.7752 8.75 14.9252L10.025 16.4252V16.6502H6.5V16.4252L7.775 14.9252C7.925 14.7752 8 14.6252 7.925 14.4002V9.15019Z" fill="black"/>
</svg>
