<svg width="13" height="13" viewBox="0 0 13 13" fill="none" xmlns="http://www.w3.org/2000/svg">
<path d="M6.71389 0.107004C3.40611 0.0480038 0.66684 2.69126 0.607839 5.99905C0.548839 9.30683 3.1921 12.0461 6.49988 12.1051C9.80766 12.1641 12.5469 9.52084 12.6059 6.21305C12.6649 2.90527 10.0217 0.166005 6.71389 0.107004ZM6.69743 1.02993C9.5059 1.08003 11.7331 3.38812 11.683 6.19659C11.6329 9.00507 9.32482 11.2323 6.51634 11.1822C3.70787 11.1321 1.48067 8.82398 1.53077 6.01551C1.58086 3.20703 3.88895 0.97984 6.69743 1.02993ZM6.61289 3.33649C5.07898 3.30913 3.82208 4.52198 3.79472 6.05589C3.76736 7.5898 4.98021 8.84671 6.51412 8.87407C7.62118 8.89381 8.57948 8.24711 9.03735 7.31774L8.20812 6.91381C7.8992 7.54071 7.26985 7.96432 6.53058 7.95114C5.47983 7.93239 4.69891 7.12311 4.71765 6.07235C4.73639 5.0216 5.54568 4.24067 6.59643 4.25942C7.3357 4.2726 7.95001 4.71794 8.2359 5.35637L9.07948 4.98181C8.65412 4.03669 7.71995 3.35623 6.61243 3.33648L6.61289 3.33649Z" fill="white"/>
</svg>
