<svg width="239" height="74" viewBox="0 0 239 74" fill="none" xmlns="http://www.w3.org/2000/svg">
<path d="M5.46875 13.0938H37.3125V18.7188H11.6875V32.6562H34.2188V38.125H11.6875V59H5.46875V13.0938ZM44.5938 13.0938H76.4375V18.7188H50.8125V32.6562H73.3438V38.125H50.8125V59H44.5938V13.0938ZM102.469 11.8438C108.281 11.8438 112.792 13.375 116 16.4375C119.208 19.5 120.99 22.9792 121.344 26.875H115.281C114.594 23.9167 113.219 21.5729 111.156 19.8438C109.115 18.1146 106.24 17.25 102.531 17.25C98.0104 17.25 94.3542 18.8438 91.5625 22.0312C88.7917 25.1979 87.4062 30.0625 87.4062 36.625C87.4062 42 88.6562 46.3646 91.1562 49.7188C93.6771 53.0521 97.4271 54.7188 102.406 54.7188C106.99 54.7188 110.479 52.9583 112.875 49.4375C114.146 47.5833 115.094 45.1458 115.719 42.125H121.781C121.24 46.9583 119.448 51.0104 116.406 54.2812C112.76 58.2188 107.844 60.1875 101.656 60.1875C96.3229 60.1875 91.8438 58.5729 88.2188 55.3438C83.4479 51.0729 81.0625 44.4792 81.0625 35.5625C81.0625 28.7917 82.8542 23.2396 86.4375 18.9062C90.3125 14.1979 95.6562 11.8438 102.469 11.8438ZM148.719 11.8438C154.531 11.8438 159.042 13.375 162.25 16.4375C165.458 19.5 167.24 22.9792 167.594 26.875H161.531C160.844 23.9167 159.469 21.5729 157.406 19.8438C155.365 18.1146 152.49 17.25 148.781 17.25C144.26 17.25 140.604 18.8438 137.812 22.0312C135.042 25.1979 133.656 30.0625 133.656 36.625C133.656 42 134.906 46.3646 137.406 49.7188C139.927 53.0521 143.677 54.7188 148.656 54.7188C153.24 54.7188 156.729 52.9583 159.125 49.4375C160.396 47.5833 161.344 45.1458 161.969 42.125H168.031C167.49 46.9583 165.698 51.0104 162.656 54.2812C159.01 58.2188 154.094 60.1875 147.906 60.1875C142.573 60.1875 138.094 58.5729 134.469 55.3438C129.698 51.0729 127.312 44.4792 127.312 35.5625C127.312 28.7917 129.104 23.2396 132.688 18.9062C136.562 14.1979 141.906 11.8438 148.719 11.8438Z" fill="white"/>
<path d="M177.625 25.5312L186.562 52.7812L195.906 25.5312H202.062L189.438 59H183.438L171.094 25.5312H177.625ZM204.75 59C204.958 55.1458 205.75 51.7917 207.125 48.9375C208.521 46.0833 211.229 43.4896 215.25 41.1562L221.25 37.6875C223.938 36.125 225.823 34.7917 226.906 33.6875C228.615 31.9583 229.469 29.9792 229.469 27.75C229.469 25.1458 228.688 23.0833 227.125 21.5625C225.562 20.0208 223.479 19.25 220.875 19.25C217.021 19.25 214.354 20.7083 212.875 23.625C212.083 25.1875 211.646 27.3542 211.562 30.125H205.844C205.906 26.2292 206.625 23.0521 208 20.5938C210.438 16.2604 214.74 14.0938 220.906 14.0938C226.031 14.0938 229.771 15.4792 232.125 18.25C234.5 21.0208 235.688 24.1042 235.688 27.5C235.688 31.0833 234.427 34.1458 231.906 36.6875C230.448 38.1667 227.833 39.9583 224.062 42.0625L219.781 44.4375C217.74 45.5625 216.135 46.6354 214.969 47.6562C212.885 49.4688 211.573 51.4792 211.031 53.6875H235.469V59H204.75Z" fill="#2F45EA"/>
</svg>
