<svg width="25" height="24" viewBox="0 0 25 24" fill="none" xmlns="http://www.w3.org/2000/svg">
<path d="M0.5 12C0.5 18.6274 5.87258 24 12.5 24C19.1274 24 24.5 18.6274 24.5 12C24.5 5.37258 19.1274 0 12.5 0C5.87258 0 0.5 5.37258 0.5 12Z" fill="#F00073"/>
<path d="M12.5004 6.90039C14.1504 6.90039 14.3754 6.90039 15.0504 6.90039C15.6504 6.90039 15.9504 7.05039 16.1754 7.12539C16.4754 7.27539 16.7004 7.35039 16.9254 7.57539C17.1504 7.80039 17.3004 8.02539 17.3754 8.32539C17.4504 8.55039 17.5254 8.85039 17.6004 9.45039C17.6004 10.1254 17.6004 10.2754 17.6004 12.0004C17.6004 13.7254 17.6004 13.8754 17.6004 14.5504C17.6004 15.1504 17.4504 15.4504 17.3754 15.6754C17.2254 15.9754 17.1504 16.2004 16.9254 16.4254C16.7004 16.6504 16.4754 16.8004 16.1754 16.8754C15.9504 16.9504 15.6504 17.0254 15.0504 17.1004C14.3754 17.1004 14.2254 17.1004 12.5004 17.1004C10.7754 17.1004 10.6254 17.1004 9.95039 17.1004C9.35039 17.1004 9.05039 16.9504 8.82539 16.8754C8.52539 16.7254 8.30039 16.6504 8.07539 16.4254C7.85039 16.2004 7.70039 15.9754 7.62539 15.6754C7.55039 15.4504 7.47539 15.1504 7.40039 14.5504C7.40039 13.8754 7.40039 13.7254 7.40039 12.0004C7.40039 10.2754 7.40039 10.1254 7.40039 9.45039C7.40039 8.85039 7.55039 8.55039 7.62539 8.32539C7.77539 8.02539 7.85039 7.80039 8.07539 7.57539C8.30039 7.35039 8.52539 7.20039 8.82539 7.12539C9.05039 7.05039 9.35039 6.97539 9.95039 6.90039C10.6254 6.90039 10.8504 6.90039 12.5004 6.90039ZM12.5004 5.77539C10.7754 5.77539 10.6254 5.77539 9.95039 5.77539C9.27539 5.77539 8.82539 5.92539 8.45039 6.07539C8.07539 6.22539 7.70039 6.45039 7.32539 6.82539C6.95039 7.20039 6.80039 7.50039 6.57539 7.95039C6.42539 8.32539 6.35039 8.77539 6.27539 9.45039C6.27539 10.1254 6.27539 10.3504 6.27539 12.0004C6.27539 13.7254 6.27539 13.8754 6.27539 14.5504C6.27539 15.2254 6.42539 15.6754 6.57539 16.0504C6.72539 16.4254 6.95039 16.8004 7.32539 17.1754C7.70039 17.5504 8.00039 17.7004 8.45039 17.9254C8.82539 18.0754 9.27539 18.1504 9.95039 18.2254C10.6254 18.2254 10.8504 18.2254 12.5004 18.2254C14.1504 18.2254 14.3754 18.2254 15.0504 18.2254C15.7254 18.2254 16.1754 18.0754 16.5504 17.9254C16.9254 17.7754 17.3004 17.5504 17.6754 17.1754C18.0504 16.8004 18.2004 16.5004 18.4254 16.0504C18.5754 15.6754 18.6504 15.2254 18.7254 14.5504C18.7254 13.8754 18.7254 13.6504 18.7254 12.0004C18.7254 10.3504 18.7254 10.1254 18.7254 9.45039C18.7254 8.77539 18.5754 8.32539 18.4254 7.95039C18.2754 7.57539 18.0504 7.20039 17.6754 6.82539C17.3004 6.45039 17.0004 6.30039 16.5504 6.07539C16.1754 5.92539 15.7254 5.85039 15.0504 5.77539C14.3754 5.77539 14.2254 5.77539 12.5004 5.77539Z" fill="white"/>
<path d="M12.5004 8.77539C10.7004 8.77539 9.27539 10.2004 9.27539 12.0004C9.27539 13.8004 10.7004 15.2254 12.5004 15.2254C14.3004 15.2254 15.7254 13.8004 15.7254 12.0004C15.7254 10.2004 14.3004 8.77539 12.5004 8.77539ZM12.5004 14.1004C11.3754 14.1004 10.4004 13.2004 10.4004 12.0004C10.4004 10.8754 11.3004 9.90039 12.5004 9.90039C13.6254 9.90039 14.6004 10.8004 14.6004 12.0004C14.6004 13.1254 13.6254 14.1004 12.5004 14.1004Z" fill="white"/>
<path d="M15.8004 9.45039C16.2146 9.45039 16.5504 9.1146 16.5504 8.70039C16.5504 8.28618 16.2146 7.95039 15.8004 7.95039C15.3862 7.95039 15.0504 8.28618 15.0504 8.70039C15.0504 9.1146 15.3862 9.45039 15.8004 9.45039Z" fill="white"/>
</svg>
