<svg width="69" height="66" viewBox="0 0 69 66" fill="none" xmlns="http://www.w3.org/2000/svg">
<path d="M27.7318 58.0732C27.7318 62.3295 26.2076 65.7805 21.9513 65.7805H8.46347C0.756155 65.7805 0.756155 38.8049 8.46347 38.8049H21.9513C26.2076 38.8049 27.7318 42.2558 27.7318 46.5122V58.0732Z" fill="#553788"/>
<path d="M64.3416 61.9268H62.4148V42.6585H64.3416C64.8526 42.6585 65.3427 42.4555 65.7041 42.0942C66.0654 41.7328 66.2684 41.2427 66.2684 40.7317C66.2684 40.2207 66.0654 39.7306 65.7041 39.3692C65.3427 39.0079 64.8526 38.8049 64.3416 38.8049H18.0977C10.3904 38.8049 10.3904 65.7805 18.0977 65.7805H64.3416C64.8526 65.7805 65.3427 65.5775 65.7041 65.2161C66.0654 64.8548 66.2684 64.3647 66.2684 63.8537C66.2684 63.3426 66.0654 62.8525 65.7041 62.4912C65.3427 62.1298 64.8526 61.9268 64.3416 61.9268Z" fill="#9266CC"/>
<path d="M64.6728 61.9268H20.0243C16.1707 61.9268 16.1707 42.6585 20.0243 42.6585H64.6728C66.8 42.6585 66.8 61.9268 64.6728 61.9268Z" fill="#CCD6DD"/>
<path d="M20.9877 46.5122H65.9792C65.719 44.2481 65.2855 42.6585 64.6728 42.6585H20.0243C16.8431 42.6585 16.2901 55.7764 18.3614 60.3622C17.6061 54.6607 18.4809 46.5122 20.9877 46.5122Z" fill="#99AAB5"/>
<path d="M21.9513 13.756C21.9513 15.8001 21.1393 17.7605 19.6939 19.2059C18.2485 20.6513 16.2881 21.4633 14.244 21.4633H6.53666C-1.17067 21.4633 -1.17067 0.268188 6.53666 0.268188H14.244C16.2881 0.268188 18.2485 1.08021 19.6939 2.52561C21.1393 3.97101 21.9513 5.9314 21.9513 7.97551V13.756Z" fill="#226699"/>
<path d="M58.561 17.6097H56.6342V4.12185H58.561C59.072 4.12185 59.5621 3.91885 59.9235 3.55749C60.2848 3.19614 60.4878 2.70605 60.4878 2.19502C60.4878 1.68399 60.2848 1.19389 59.9235 0.832544C59.5621 0.471193 59.072 0.268188 58.561 0.268188H12.3171C4.60976 0.268188 4.60976 21.4633 12.3171 21.4633H58.561C59.072 21.4633 59.5621 21.2603 59.9235 20.899C60.2848 20.5376 60.4878 20.0475 60.4878 19.5365C60.4878 19.0255 60.2848 18.5354 59.9235 18.174C59.5621 17.8127 59.072 17.6097 58.561 17.6097Z" fill="#55ACEE"/>
<path d="M58.8925 17.6098H14.244C10.3903 17.6098 10.3903 4.12195 14.244 4.12195H58.8925C61.0197 4.12195 61.0197 17.6098 58.8925 17.6098Z" fill="#CCD6DD"/>
<path d="M14.2438 7.9756H60.3432C60.1235 5.80792 59.6418 4.12195 58.8923 4.12195H14.2438C11.9451 4.12195 11.0279 8.91782 11.473 12.7927C11.7736 10.176 12.6888 7.9756 14.2438 7.9756Z" fill="#99AAB5"/>
<path d="M37.3659 31.0975C37.3659 33.1416 36.5539 35.102 35.1085 36.5474C33.6631 37.9928 31.7027 38.8048 29.6586 38.8048H10.3903C2.68297 38.8048 2.68297 21.4634 10.3903 21.4634H29.6586C31.7027 21.4634 33.6631 22.2754 35.1085 23.7208C36.5539 25.1662 37.3659 27.1266 37.3659 29.1707V31.0975Z" fill="#F4900C"/>
<path d="M66.2681 34.9512H64.3413V25.317H66.2681C66.7792 25.317 67.2693 25.114 67.6306 24.7527C67.992 24.3913 68.195 23.9012 68.195 23.3902C68.195 22.8792 67.992 22.3891 67.6306 22.0277C67.2693 21.6664 66.7792 21.4634 66.2681 21.4634H27.7315C20.0242 21.4634 20.0242 38.8048 27.7315 38.8048H66.2681C66.7792 38.8048 67.2693 38.6018 67.6306 38.2405C67.992 37.8791 68.195 37.389 68.195 36.878C68.195 36.367 67.992 35.8769 67.6306 35.5155C67.2693 35.1542 66.7792 34.9512 66.2681 34.9512Z" fill="#FFAC33"/>
<path d="M66.5996 34.9511H29.6584C25.8048 34.9511 25.8048 25.317 29.6584 25.317H66.5996C68.7268 25.317 68.7268 34.9511 66.5996 34.9511Z" fill="#CCD6DD"/>
<path d="M29.6588 29.1706H68.1645C68.0393 27.1243 67.521 25.317 66.5999 25.317H29.6588C27.204 25.317 26.3196 29.2226 26.994 32.0609C27.3755 30.4442 28.2599 29.1706 29.6588 29.1706Z" fill="#99AAB5"/>
</svg>
