<svg width="64" height="80" viewBox="0 0 64 80" fill="none" xmlns="http://www.w3.org/2000/svg">
<path d="M64 79.7758V71.1605C64 63.0029 54.9292 57.622 46.7692 57.622H17.2308C9.07569 57.622 0 63.0029 0 71.1605V79.7758H64Z" fill="#9266CC"/>
<path d="M31.861 3.63776C41.968 3.63776 58.8099 8.69129 58.8099 30.5867C58.8099 52.4821 58.8099 57.5356 53.7564 57.5356C48.7004 57.5356 41.9656 52.4821 31.8585 52.4821C21.7539 52.4821 15.1594 57.5356 9.96311 57.5356C4.33357 57.5356 4.90957 37.3239 4.90957 30.5867C4.91449 8.69129 21.7563 3.63776 31.861 3.63776V3.63776ZM19.6911 57.6217H43.9988C43.9988 57.6217 40.9071 66.2371 31.8437 66.2371C22.7803 66.2371 19.6911 57.6217 19.6911 57.6217Z" fill="#292F33"/>
<path d="M22.9609 57.6707C22.9609 61.3137 28.3074 63.7753 31.9997 63.7753C35.692 63.7753 41.0089 61.3137 41.0089 57.6707V49.7814H22.9609V57.6707V57.6707Z" fill="#F7DECE"/>
<path d="M22.9451 53.1404C25.4632 55.9835 28.5845 56.7539 31.9765 56.7539C35.3709 56.7539 38.4921 55.986 41.0103 53.1404V45.9133H22.9451V53.1404V53.1404Z" fill="#EEC2AD"/>
<path d="M11.6539 29.8489C11.6539 15.4883 20.7025 3.84766 31.8632 3.84766C43.0238 3.84766 52.0748 15.4883 52.0748 29.8489C52.0748 44.207 43.0238 55.1683 31.8632 55.1683C20.7025 55.1683 11.6539 44.2095 11.6539 29.8489" fill="#F7DECE"/>
<path d="M31.8631 49.1125C27.9123 49.1125 25.8422 47.158 25.6207 46.934C25.3155 46.618 25.146 46.1952 25.1482 45.7559C25.1505 45.3166 25.3244 44.8955 25.6328 44.5827C25.9411 44.2698 26.3596 44.0898 26.7988 44.0812C27.2381 44.0726 27.6633 44.236 27.9837 44.5365C28.0699 44.6153 29.345 45.7451 31.8631 45.7451C34.4206 45.7451 35.6957 44.5808 35.745 44.534C36.0679 44.2304 36.497 44.0654 36.9402 44.0746C37.3834 44.0838 37.8053 44.2665 38.1154 44.5833C38.7554 45.2454 38.7554 46.2842 38.1056 46.934C37.8865 47.158 35.8188 49.1125 31.8631 49.1125" fill="#DF1F32"/>
<path d="M6.70672 37.9299C6.65503 35.4683 6.59841 37.3785 6.59841 36.7852C6.59841 28.3619 11.6519 38.0012 11.6519 32.0025C11.6519 25.9988 15.0193 25.3982 18.3867 22.0308C20.0729 20.3446 23.4403 17.0437 23.4403 17.0437C23.4403 17.0437 31.8612 22.1317 38.5984 22.1317C45.3332 22.1317 52.0729 25.5163 52.0729 32.2535C52.0729 38.9908 57.1264 28.3545 57.1264 36.7754C57.1264 37.376 57.0722 35.4683 57.0279 37.9299H58.7953C58.8125 33.0068 58.8125 33.1939 58.8125 30.048C58.8125 8.15262 41.9682 0 31.8636 0C21.759 0 4.91718 8.01723 4.91718 29.9126C4.91718 31.8646 4.86795 33.0068 4.93687 37.9299H6.70672V37.9299Z" fill="#292F33"/>
<path d="M23.6511 35.1874C23.0994 35.1855 22.5708 34.9655 22.1807 34.5753C21.7906 34.1852 21.5705 33.6567 21.5686 33.105V31.025C21.5686 29.8804 22.5065 28.9425 23.6511 28.9425C24.7957 28.9425 25.736 29.8804 25.736 31.025V33.105C25.7334 33.6569 25.5128 34.1854 25.1223 34.5755C24.7318 34.9655 24.203 35.1855 23.6511 35.1874V35.1874ZM40.3034 35.1874C39.7517 35.1855 39.2231 34.9655 38.833 34.5753C38.4429 34.1852 38.2229 33.6567 38.2209 33.105V31.025C38.2209 29.8804 39.1588 28.9425 40.3034 28.9425C41.448 28.9425 42.3858 29.8804 42.3858 31.025V33.105C42.3839 33.6567 42.1639 34.1852 41.7738 34.5753C41.3836 34.9655 40.8551 35.1855 40.3034 35.1874Z" fill="#662113"/>
<path d="M34.0614 41.6218H29.8989C29.6229 41.6212 29.3585 41.5113 29.1634 41.3161C28.9682 41.121 28.8583 40.8565 28.8577 40.5806V40.204C28.8577 39.6304 29.3229 39.1603 29.8989 39.1603H34.0614C34.6324 39.1603 35.1026 39.628 35.1026 40.204V40.5806C35.1019 40.8565 34.992 41.121 34.7969 41.3161C34.6018 41.5113 34.3373 41.6212 34.0614 41.6218" fill="#C1694F"/>
<path d="M15.8635 30.3874C15.8635 33.9517 14.0567 36.8416 11.829 36.8416C9.60133 36.8416 7.79456 33.9517 7.79456 30.3874C7.79456 26.8231 9.60133 23.9308 11.829 23.9308C14.0567 23.9283 15.8635 26.8206 15.8635 30.3874ZM56.2057 30.3874C56.2057 33.9517 54.4013 36.8416 52.1712 36.8416C49.9435 36.8416 48.1367 33.9517 48.1367 30.3874C48.1367 26.8231 49.941 23.9308 52.1712 23.9308C54.4013 23.9283 56.2057 26.8206 56.2057 30.3874Z" fill="#F7DECE"/>
<path d="M32.0008 65.5541C32.0008 65.5541 40.3233 71.6932 42.0784 72.3898C42.4624 72.5424 41.175 63.3904 41.175 63.3904H22.8291C22.8291 63.3904 21.5418 72.6975 22.2531 72.3135C23.8285 71.4717 32.0008 65.5541 32.0008 65.5541" fill="#744EAA"/>
<path d="M20.4073 54.9572C21.7956 56.3504 31.9987 63.2845 31.9987 63.2845C31.9987 63.2845 26.7679 66.3418 21.9408 71.9861C21.4608 72.5522 18.1427 60.6015 18.0418 57.9332C18.0122 57.1873 19.7402 54.2901 20.4073 54.9572ZM43.6417 54.9572C42.2485 56.3504 32.0504 63.2845 32.0504 63.2845C32.0504 63.2845 37.2811 66.3418 42.1033 71.9861C42.5833 72.5522 45.8965 60.6015 45.9974 57.9332C46.027 57.1873 44.3064 54.2901 43.6417 54.9572Z" fill="#CBB7EA"/>
<path d="M29.5389 65.0076H34.462V79.7769H29.5389V65.0076Z" fill="#744EAA"/>
<path d="M32.0005 78.5451C33.3599 78.5451 34.462 77.443 34.462 76.0835C34.462 74.7241 33.3599 73.622 32.0005 73.622C30.641 73.622 29.5389 74.7241 29.5389 76.0835C29.5389 77.443 30.641 78.5451 32.0005 78.5451Z" fill="#CBB7EA"/>
<path d="M32.0005 71.1612C33.3599 71.1612 34.462 70.0592 34.462 68.6997C34.462 67.3402 33.3599 66.2382 32.0005 66.2382C30.641 66.2382 29.5389 67.3402 29.5389 68.6997C29.5389 70.0592 30.641 71.1612 32.0005 71.1612Z" fill="#CBB7EA"/>
</svg>
