<svg width="231" height="50" viewBox="0 0 231 50" fill="none" xmlns="http://www.w3.org/2000/svg">
<path d="M0.46875 2.09375H32.3125V7.71875H6.6875V21.6562H29.2188V27.125H6.6875V48H0.46875V2.09375ZM39.5938 2.09375H71.4375V7.71875H45.8125V21.6562H68.3438V27.125H45.8125V48H39.5938V2.09375ZM97.4688 0.84375C103.281 0.84375 107.792 2.375 111 5.4375C114.208 8.5 115.99 11.9792 116.344 15.875H110.281C109.594 12.9167 108.219 10.5729 106.156 8.84375C104.115 7.11458 101.24 6.25 97.5312 6.25C93.0104 6.25 89.3542 7.84375 86.5625 11.0312C83.7917 14.1979 82.4062 19.0625 82.4062 25.625C82.4062 31 83.6562 35.3646 86.1562 38.7188C88.6771 42.0521 92.4271 43.7188 97.4062 43.7188C101.99 43.7188 105.479 41.9583 107.875 38.4375C109.146 36.5833 110.094 34.1458 110.719 31.125H116.781C116.24 35.9583 114.448 40.0104 111.406 43.2812C107.76 47.2188 102.844 49.1875 96.6562 49.1875C91.3229 49.1875 86.8438 47.5729 83.2188 44.3438C78.4479 40.0729 76.0625 33.4792 76.0625 24.5625C76.0625 17.7917 77.8542 12.2396 81.4375 7.90625C85.3125 3.19792 90.6562 0.84375 97.4688 0.84375ZM143.719 0.84375C149.531 0.84375 154.042 2.375 157.25 5.4375C160.458 8.5 162.24 11.9792 162.594 15.875H156.531C155.844 12.9167 154.469 10.5729 152.406 8.84375C150.365 7.11458 147.49 6.25 143.781 6.25C139.26 6.25 135.604 7.84375 132.812 11.0312C130.042 14.1979 128.656 19.0625 128.656 25.625C128.656 31 129.906 35.3646 132.406 38.7188C134.927 42.0521 138.677 43.7188 143.656 43.7188C148.24 43.7188 151.729 41.9583 154.125 38.4375C155.396 36.5833 156.344 34.1458 156.969 31.125H163.031C162.49 35.9583 160.698 40.0104 157.656 43.2812C154.01 47.2188 149.094 49.1875 142.906 49.1875C137.573 49.1875 133.094 47.5729 129.469 44.3438C124.698 40.0729 122.312 33.4792 122.312 24.5625C122.312 17.7917 124.104 12.2396 127.688 7.90625C131.562 3.19792 136.906 0.84375 143.719 0.84375Z" fill="white"/>
<path d="M172.625 14.5312L181.562 41.7812L190.906 14.5312H197.062L184.438 48H178.438L166.094 14.5312H172.625ZM199.75 48C199.958 44.1458 200.75 40.7917 202.125 37.9375C203.521 35.0833 206.229 32.4896 210.25 30.1562L216.25 26.6875C218.938 25.125 220.823 23.7917 221.906 22.6875C223.615 20.9583 224.469 18.9792 224.469 16.75C224.469 14.1458 223.688 12.0833 222.125 10.5625C220.562 9.02083 218.479 8.25 215.875 8.25C212.021 8.25 209.354 9.70833 207.875 12.625C207.083 14.1875 206.646 16.3542 206.562 19.125H200.844C200.906 15.2292 201.625 12.0521 203 9.59375C205.438 5.26042 209.74 3.09375 215.906 3.09375C221.031 3.09375 224.771 4.47917 227.125 7.25C229.5 10.0208 230.688 13.1042 230.688 16.5C230.688 20.0833 229.427 23.1458 226.906 25.6875C225.448 27.1667 222.833 28.9583 219.062 31.0625L214.781 33.4375C212.74 34.5625 211.135 35.6354 209.969 36.6562C207.885 38.4688 206.573 40.4792 206.031 42.6875H230.469V48H199.75Z" fill="#2F45EA"/>
</svg>
