<svg width="25" height="24" viewBox="0 0 25 24" fill="none" xmlns="http://www.w3.org/2000/svg">
<path d="M0.5 12C0.5 18.6274 5.87258 24 12.5 24C19.1274 24 24.5 18.6274 24.5 12C24.5 5.37258 19.1274 0 12.5 0C5.87258 0 0.5 5.37258 0.5 12Z" fill="#231E1B"/>
<path fill-rule="evenodd" clip-rule="evenodd" d="M12.4817 6.14355C9.1789 6.14355 6.5 8.82245 6.5 12.1252C6.5 14.7674 8.22477 17.0059 10.5734 17.8133C10.867 17.85 10.9771 17.6665 10.9771 17.5197C10.9771 17.3729 10.9771 17.0059 10.9771 16.4922C9.32569 16.8592 8.95872 15.6848 8.95872 15.6848C8.70183 14.9876 8.29817 14.8041 8.29817 14.8041C7.74771 14.4371 8.33486 14.4371 8.33486 14.4371C8.92202 14.4738 9.25229 15.061 9.25229 15.061C9.80275 15.9784 10.6468 15.7215 10.9771 15.5747C11.0138 15.1711 11.1972 14.9142 11.344 14.7674C10.0229 14.6206 8.62844 14.1069 8.62844 11.7949C8.62844 11.1344 8.84862 10.6206 9.25229 10.1803C9.2156 10.0702 8.99541 9.44631 9.32569 8.63897C9.32569 8.63897 9.83945 8.49218 10.9771 9.26282C11.4541 9.11603 11.9679 9.07933 12.4817 9.07933C12.9954 9.07933 13.5092 9.15273 13.9862 9.26282C15.1239 8.49218 15.6376 8.63897 15.6376 8.63897C15.9679 9.44631 15.7477 10.0702 15.711 10.2169C16.078 10.6206 16.3349 11.1711 16.3349 11.8316C16.3349 14.1436 14.9404 14.6206 13.6193 14.7674C13.8394 14.9509 14.0229 15.3179 14.0229 15.8683C14.0229 16.6757 14.0229 17.2995 14.0229 17.5197C14.0229 17.6665 14.133 17.85 14.4266 17.8133C16.8119 17.0059 18.5 14.7674 18.5 12.1252C18.4633 8.82245 15.7844 6.14355 12.4817 6.14355Z" fill="white"/>
</svg>
