<svg width="25" height="24" viewBox="0 0 25 24" fill="none" xmlns="http://www.w3.org/2000/svg">
<path d="M0.5 12C0.5 18.6274 5.87258 24 12.5 24C19.1274 24 24.5 18.6274 24.5 12C24.5 5.37258 19.1274 0 12.5 0C5.87258 0 0.5 5.37258 0.5 12Z" fill="#FF0000"/>
<path d="M18.2 9.07481C18.05 8.54981 17.675 8.1748 17.15 8.0248C16.25 7.7998 12.425 7.7998 12.425 7.7998C12.425 7.7998 8.675 7.7998 7.7 8.0248C7.175 8.1748 6.8 8.54981 6.65 9.07481C6.5 10.0498 6.5 11.9998 6.5 11.9998C6.5 11.9998 6.5 13.9498 6.725 14.9248C6.875 15.4498 7.25 15.8248 7.775 15.9748C8.675 16.1998 12.5 16.1998 12.5 16.1998C12.5 16.1998 16.25 16.1998 17.225 15.9748C17.75 15.8248 18.125 15.4498 18.275 14.9248C18.5 13.9498 18.5 11.9998 18.5 11.9998C18.5 11.9998 18.5 10.0498 18.2 9.07481ZM11.3 13.7998V10.1998L14.45 11.9998L11.3 13.7998Z" fill="white"/>
</svg>
